<svg height="512" viewBox="0 0 52 58" width="512" xmlns="http://www.w3.org/2000/svg"><g id="Page-1" fill="none" fill-rule="evenodd"><g id="002---Gramophone" fill-rule="nonzero"><path id="Shape" d="m29 27c-.4043959-.0000863-.7689341-.2437275-.923678-.6173454-.1547439-.373618-.0692299-.8036603.216678-1.0896546l.88-.88c.3923789-.3789722 1.0160848-.3735524 1.4018186.0121814s.3911536 1.0094397.0121814 1.4018186l-.88.88c-.1874927.1875494-.4418052.2929434-.707.293z" fill="#bcc2c6"/><path id="Shape" d="m44 12v9c0 2.209139-1.790861 4-4 4h-5.77v-4h3.53c.5691073.0006081 1.1115223-.2412642 1.4913908-.6650371s.5612114-.9893089.4986092-1.5549629l-.33-3c-.1122266-1.0140558-.9697536-1.78109-1.99-1.78h-6.43c-5.2461583.0064423-9.9763001 3.1598701-12 8-1.08 0-2.05-1.17-2.77-3.07-.2827598-.76941-.5100087-1.5580973-.68-2.36-.3121524-1.5045516-.4895214-3.0339413-.53-4.57-.01-.33-.02-.66-.02-1s.01-.67.02-1c.0404786-1.53605868.2178476-3.06544835.53-4.57.1699913-.80190265.3972402-1.59058999.68-2.36.72-1.9 1.7-3.07 2.77-3.07 2.0236999 4.84012989 6.7538417 7.99355772 12 8h9c2.209139 0 4 1.790861 4 4z" fill="#e3bf5c"/><path id="Shape" d="m48 18h-8.45c-.5522847 0-1-.4477153-1-1s.4477153-1 1-1h8.45c.5522847 0 1 .4477153 1 1s-.4477153 1-1 1z" fill="#94a4a4"/><path id="Shape" d="m52 16v24c0 3.3137085-2.6862915 6-6 6h-7v-4h6c1.6568542 0 3-1.3431458 3-3v-23c0-.5522847.4477153-1 1-1h2c.5522847 0 1 .4477153 1 1z" fill="#e3bf5c"/><circle id="Oval" cx="32" cy="23" fill="#ebeff0" r="3"/><path id="Shape" d="m32 27c-2.209139 0-4-1.790861-4-4s1.790861-4 4-4 4 1.790861 4 4-1.790861 4-4 4zm0-6c-1.1045695 0-2 .8954305-2 2s.8954305 2 2 2 2-.8954305 2-2-.8954305-2-2-2z" fill="#94a4a4"/><path id="Shape" d="m22 30h-11c-1.10116878.0081672-1.99183278.8988312-2 2 .0032948 1.1032019.89679813 1.9967052 2 2h-7c-1.10116878.0081672-1.99183278.8988312-2 2 .0032948 1.1032019.89679813 1.9967052 2 2h1v12h-1c-1.10320187.0032948-1.9967052.8967981-2 2v2h-1c-.55228475 0-1 .4477153-1 1v2c0 .5522847.44771525 1 1 1h44c.5522847 0 1-.4477153 1-1v-2c0-.5522847-.4477153-1-1-1h-1v-2c-.0032948-1.1032019-.8967981-1.9967052-2-2h-1v-12h1c1.1011688-.0081672 1.9918328-.8988312 2-2-.0032948-1.1032019-.8967981-1.9967052-2-2h-7c1.1011688-.0081672 1.9918328-.8988312 2-2-.0032948-1.1032019-.8967981-1.9967052-2-2z" fill="#a46a43"/><path id="Shape" d="m23 31c-.5522847 0-1-.4477153-1-1v-2c0-.5522847.4477153-1 1-1s1 .4477153 1 1v2c0 .5522847-.4477153 1-1 1z" fill="#bcc2c6"/><rect id="Rectangle-path" fill="#e3bf5c" height="4" rx="1" width="46" y="54"/><path id="Rectangle-path" d="m5 38h36v12h-36z" fill="#805333"/><path id="Shape" d="m37 32c-.0081672 1.1011688-.8988312 1.9918328-2 2h-24c-1.10320187-.0032948-1.9967052-.8967981-2-2 .00816722-1.1011688.89883122-1.9918328 2-2h24c1.1032019.0032948 1.9967052.8967981 2 2z" fill="#393f4a"/><path id="Shape" d="m36 47c-.3808256.0020788-.7297741-.2123306-.9-.553l-.447-.894c-.1673779-.3381037-.5117348-.55231-.889-.553h-8.764c-.5522847 0-1-.4477153-1-1s.4477153-1 1-1h8.764c1.1372699-.0039706 2.1778471.6390696 2.683 1.658l.448.895c.1549383.3100616.1382634.6782442-.0440684.9730309-.1823318.2947868-.5043136.4741307-.8509316.4739691z" fill="#7f8b8c"/><circle id="Oval" cx="23" cy="44" fill="#bcc2c6" r="2"/><g fill="#b08f46"><path id="Shape" d="m22.39 13.92c-2.4738581 1.0736027-4.604872 2.8067812-6.16 5.01-.2827598-.76941-.5100087-1.5580973-.68-2.36 1.6437472-1.9471345 3.71861-3.4844503 6.06-4.49.3316478-.1560074.7220669-.1180873 1.0174942.0988257.2954274.2169129.4485222.5780598.3989895.9412058-.0495327.3631461-.2937557.6700992-.6364837.7999685z"/><path id="Shape" d="m22.92 9.39c-.1564992.36950495-.5187198.60967296-.92.61-.1339228-.0014528-.2663205-.0286113-.39-.08-2.3404169-1.00724214-4.4149171-2.54428931-6.06-4.49.1699913-.80190265.3972402-1.59058999.68-2.36 1.5586675 2.1999098 3.6886604 3.93225788 6.16 5.01.5077826.21570508.7449432.80189442.53 1.31z"/><path id="Shape" d="m19 11c0 .5522847-.4477153 1-1 1h-2.98c-.01-.33-.02-.66-.02-1s.01-.67.02-1h2.98c.5522847 0 1 .4477153 1 1z"/></g></g></g></svg>